<?xml version="1.0" standalone="no"?>
<!DOCTYPE svg PUBLIC "-//W3C//DTD SVG 20010904//EN"
 "http://www.w3.org/TR/2001/REC-SVG-20010904/DTD/svg10.dtd">
<svg version="1.0" xmlns="http://www.w3.org/2000/svg"
 width="260.000000pt" height="260.000000pt" viewBox="0 0 260.000000 260.000000"
 preserveAspectRatio="xMidYMid meet">
<metadata>
Created by potrace 1.11, written by Peter Selinger 2001-2013
</metadata>
<g transform="translate(0.000000,260.000000) scale(0.100000,-0.100000)"
fill="#000000" stroke="none">
<path d="M391 2471 c-39 -11 -66 -56 -65 -109 2 -90 43 -122 159 -122 74 0 73
2 40 -80 -8 -19 -72 -198 -142 -397 l-127 -363 -31 0 c-41 0 -90 -32 -102 -67
-12 -34 -9 -93 6 -121 24 -44 55 -50 263 -52 261 -1 290 11 292 120 1 81 -46
120 -141 120 -18 0 -33 3 -33 6 0 4 10 33 21 66 l22 58 240 -2 240 -3 18 -50
c25 -73 25 -75 -23 -75 -24 0 -59 -8 -78 -18 -28 -14 -37 -25 -46 -62 -12 -49
-3 -103 22 -127 21 -21 71 -33 141 -33 l62 0 19 -52 c11 -29 91 -253 178 -498
130 -364 164 -451 190 -480 l32 -35 127 -3 c141 -4 162 3 189 60 14 30 65 172
176 493 21 61 64 182 95 270 31 88 63 181 71 208 12 38 19 47 38 47 72 0 119
48 118 119 -1 58 -18 90 -57 106 -49 21 -391 21 -441 0 -43 -18 -63 -61 -58
-124 6 -62 44 -96 111 -100 26 -1 48 -3 50 -4 2 -2 -25 -79 -209 -605 -34 -95
-62 -171 -64 -169 -6 5 -264 770 -262 773 2 1 21 3 43 5 83 6 117 39 118 118
1 88 -42 121 -157 121 -51 0 -65 3 -71 18 -4 9 -24 64 -45 122 -172 479 -311
853 -325 873 -34 53 -61 57 -332 56 -136 -1 -259 -4 -272 -8z m409 -255 c0 -2
34 -101 75 -221 41 -119 75 -219 75 -221 0 -2 -72 -4 -159 -4 l-160 0 77 225
c42 124 80 225 84 225 4 0 8 -2 8 -4z"/>
</g>
</svg>
